<svg width="25" height="25" viewBox="0 0 25 25" fill="none" xmlns="http://www.w3.org/2000/svg">
<path d="M21.3568 3.63757C20.205 2.47998 18.8331 1.56216 17.3212 0.937638C15.8092 0.313117 14.1873 -0.00560014 12.5502 7.4462e-05C5.69095 7.4462e-05 0.100503 5.56257 0.100503 12.3876C0.100503 14.5751 0.678392 16.7001 1.75879 18.5751L0 25.0001L6.59548 23.2751C8.41708 24.2626 10.4648 24.7876 12.5502 24.7876C19.4095 24.7876 25 19.2251 25 12.4001C25 9.08757 23.706 5.97507 21.3568 3.63757ZM12.5502 22.6876C10.691 22.6876 8.86935 22.1876 7.27387 21.2501L6.89698 21.0251L2.97739 22.0501L4.0201 18.2501L3.76884 17.8626C2.73586 16.2213 2.18736 14.3241 2.18593 12.3876C2.18593 6.71257 6.83417 2.08757 12.5377 2.08757C15.3015 2.08757 17.902 3.16257 19.8492 5.11257C20.8134 6.06753 21.5775 7.2034 22.0972 8.45436C22.6169 9.70531 22.8819 11.0465 22.8769 12.4001C22.902 18.0751 18.2538 22.6876 12.5502 22.6876ZM18.2286 14.9876C17.9146 14.8376 16.3819 14.0876 16.1055 13.9751C15.8166 13.8751 15.6156 13.8251 15.402 14.1251C15.1884 14.4376 14.598 15.1376 14.4221 15.3376C14.2462 15.5501 14.0578 15.5751 13.7437 15.4126C13.4296 15.2626 12.4246 14.9251 11.2437 13.8751C10.3141 13.0501 9.69849 12.0376 9.51005 11.7251C9.33417 11.4126 9.48492 11.2501 9.64824 11.0876C9.78643 10.9501 9.96231 10.7251 10.1131 10.5501C10.2638 10.3751 10.3266 10.2376 10.4271 10.0376C10.5276 9.82507 10.4774 9.65007 10.402 9.50008C10.3266 9.35007 9.69849 7.82507 9.44723 7.20007C9.19598 6.60007 8.93216 6.67507 8.74372 6.66257H8.1407C7.92713 6.66257 7.6005 6.73757 7.31156 7.05007C7.03517 7.36257 6.23115 8.11257 6.23115 9.63757C6.23115 11.1626 7.34925 12.6376 7.5 12.8376C7.65075 13.0501 9.69849 16.1751 12.8141 17.5126C13.5553 17.8376 14.1332 18.0251 14.5854 18.1626C15.3266 18.4001 16.005 18.3626 16.5452 18.2876C17.1482 18.2001 18.392 17.5376 18.6432 16.8126C18.907 16.0876 18.907 15.4751 18.8191 15.3376C18.7312 15.2001 18.5427 15.1376 18.2286 14.9876Z" fill="#4999A5"/>
</svg>
