<svg width="25" height="26" viewBox="0 0 25 26" fill="none" xmlns="http://www.w3.org/2000/svg">
<path d="M0.00501672 25.5L1.69502 19.29C0.581439 17.3811 -0.00361329 15.21 1.67903e-05 13C1.67903e-05 6.09625 5.59626 0.5 12.5 0.5C19.4038 0.5 25 6.09625 25 13C25 19.9037 19.4038 25.5 12.5 25.5C10.291 25.5035 8.12083 24.9189 6.21251 23.8062L0.00501672 25.5ZM7.98876 7.135C7.82734 7.14502 7.6696 7.18753 7.52501 7.26C7.38941 7.33678 7.26563 7.43278 7.15751 7.545C7.00751 7.68625 6.92251 7.80874 6.83126 7.9275C6.36928 8.52874 6.12077 9.26677 6.12501 10.025C6.12751 10.6375 6.28751 11.2337 6.53751 11.7912C7.04876 12.9187 7.89001 14.1125 9.00126 15.2187C9.26876 15.485 9.53001 15.7525 9.81126 16.0012C11.1905 17.2156 12.8341 18.0913 14.6113 18.5587L15.3225 18.6675C15.5538 18.68 15.785 18.6625 16.0175 18.6512C16.3816 18.6324 16.737 18.5339 17.0588 18.3625C17.2224 18.2782 17.3822 18.1864 17.5375 18.0875C17.5375 18.0875 17.5913 18.0525 17.6938 17.975C17.8625 17.85 17.9663 17.7612 18.1063 17.615C18.21 17.5075 18.3 17.3812 18.3688 17.2375C18.4663 17.0337 18.5638 16.645 18.6038 16.3212C18.6338 16.0737 18.625 15.9387 18.6213 15.855C18.6163 15.7212 18.505 15.5825 18.3838 15.5237L17.6563 15.1975C17.6563 15.1975 16.5688 14.7237 15.905 14.4212C15.835 14.3907 15.76 14.3734 15.6838 14.37C15.5982 14.3612 15.5118 14.3708 15.4303 14.3982C15.3488 14.4256 15.2741 14.4701 15.2113 14.5287V14.5262C15.205 14.5262 15.1213 14.5975 14.2175 15.6925C14.1656 15.7622 14.0942 15.8149 14.0123 15.8438C13.9303 15.8728 13.8417 15.8766 13.7575 15.855C13.6761 15.8332 13.5963 15.8056 13.5188 15.7725C13.3638 15.7075 13.31 15.6825 13.2038 15.6362L13.1975 15.6337C12.4824 15.3215 11.8203 14.8998 11.235 14.3837C11.0775 14.2462 10.9313 14.0962 10.7813 13.9512C10.2895 13.4803 9.8609 12.9475 9.50626 12.3662L9.43251 12.2475C9.37954 12.1677 9.33671 12.0816 9.30501 11.9912C9.25751 11.8075 9.38126 11.66 9.38126 11.66C9.38126 11.66 9.68501 11.3275 9.82626 11.1475C9.94387 10.9979 10.0536 10.8423 10.155 10.6812C10.3025 10.4437 10.3488 10.2 10.2713 10.0112C9.92126 9.15624 9.55876 8.30499 9.18626 7.46C9.11251 7.2925 8.89376 7.1725 8.69501 7.14875C8.62751 7.14125 8.56001 7.13375 8.49251 7.12875C8.32464 7.12041 8.15643 7.12333 7.98876 7.135Z" fill="#4999A5"/>
</svg>
