<svg width="19" height="19" viewBox="0 0 19 19" fill="none" xmlns="http://www.w3.org/2000/svg">
<path d="M17.8438 13.0208C16.5625 13.0208 15.3229 12.8125 14.1667 12.4375C13.9855 12.3761 13.7908 12.367 13.6047 12.4112C13.4186 12.4554 13.2487 12.5512 13.1146 12.6875L11.4792 14.7396C8.53125 13.3333 5.77083 10.6771 4.30208 7.625L6.33333 5.89583C6.61458 5.60417 6.69792 5.19792 6.58333 4.83333C6.19792 3.67708 6 2.4375 6 1.15625C6 0.59375 5.53125 0.125 4.96875 0.125H1.36458C0.802083 0.125 0.125 0.375 0.125 1.15625C0.125 10.8333 8.17708 18.875 17.8438 18.875C18.5833 18.875 18.875 18.2187 18.875 17.6458V14.0521C18.875 13.4896 18.4062 13.0208 17.8438 13.0208Z" fill="#4999A5"/>
</svg>
