<svg width="25" height="20" viewBox="0 0 25 20" fill="none" xmlns="http://www.w3.org/2000/svg">
<path d="M2.5 20C1.8125 20 1.22417 19.7554 0.735 19.2663C0.245 18.7763 0 18.1875 0 17.5V2.5C0 1.8125 0.245 1.22417 0.735 0.735C1.22417 0.245 1.8125 0 2.5 0H22.5C23.1875 0 23.7763 0.245 24.2663 0.735C24.7554 1.22417 25 1.8125 25 2.5V17.5C25 18.1875 24.7554 18.7763 24.2663 19.2663C23.7763 19.7554 23.1875 20 22.5 20H2.5ZM22.5 5L13.1562 10.8438C13.0521 10.9063 12.9425 10.9529 12.8275 10.9837C12.7133 11.0154 12.6042 11.0312 12.5 11.0312C12.3958 11.0312 12.2867 11.0154 12.1725 10.9837C12.0575 10.9529 11.9479 10.9063 11.8438 10.8438L2.5 5V17.5H22.5V5ZM12.5 8.75L22.5 2.5H2.5L12.5 8.75ZM2.5 5.3125V3.46875V3.5V3.48375V5.3125Z" fill="#4999A5"/>
</svg>
