<svg width="16" height="17" viewBox="0 0 16 17" fill="none" xmlns="http://www.w3.org/2000/svg">
<path d="M15.668 8.08005H8.33204V10.264H13.54C13.276 13.312 10.74 14.616 8.34004 14.616C5.27604 14.616 2.58804 12.2 2.58804 8.80005C2.58804 5.52005 5.14804 2.98405 8.34804 2.98405C10.82 2.98405 12.268 4.56005 12.268 4.56005L13.788 2.97605C13.788 2.97605 11.836 0.800049 8.26804 0.800049C3.72404 0.800049 0.212036 4.64005 0.212036 8.80005C0.212036 12.84 3.51604 16.8 8.38804 16.8C12.668 16.8 15.788 13.864 15.788 9.52805C15.788 8.60805 15.668 8.08005 15.668 8.08005Z" fill="black" fill-opacity="0.6"/>
</svg>
