<svg width="16" height="17" viewBox="0 0 16 17" fill="none" xmlns="http://www.w3.org/2000/svg">
<path d="M10.56 8.80005C10.56 9.30637 10.4099 9.80132 10.1286 10.2223C9.84727 10.6433 9.44745 10.9714 8.97967 11.1652C8.51189 11.3589 7.99716 11.4096 7.50057 11.3109C7.00398 11.2121 6.54783 10.9683 6.18981 10.6102C5.83178 10.2522 5.58797 9.79607 5.48919 9.29948C5.39041 8.80289 5.44111 8.28816 5.63487 7.82038C5.82863 7.3526 6.15675 6.95278 6.57774 6.67149C6.99873 6.39019 7.49368 6.24005 8 6.24005C8.6783 6.24216 9.32823 6.51255 9.80786 6.99219C10.2875 7.47182 10.5579 8.12174 10.56 8.80005ZM16 5.28005V12.32C16 13.5082 15.528 14.6477 14.6878 15.4879C13.8477 16.328 12.7082 16.8 11.52 16.8H4.48C3.29183 16.8 2.15232 16.328 1.31216 15.4879C0.471999 14.6477 0 13.5082 0 12.32V5.28005C0 4.09188 0.471999 2.95237 1.31216 2.11221C2.15232 1.27205 3.29183 0.800049 4.48 0.800049H11.52C12.7082 0.800049 13.8477 1.27205 14.6878 2.11221C15.528 2.95237 16 4.09188 16 5.28005ZM11.84 8.80005C11.84 8.04057 11.6148 7.29814 11.1928 6.66666C10.7709 6.03517 10.1712 5.54299 9.4695 5.25235C8.76784 4.96171 7.99574 4.88567 7.25085 5.03383C6.50597 5.182 5.82174 5.54773 5.28471 6.08476C4.74768 6.62179 4.38195 7.30602 4.23378 8.0509C4.08562 8.79579 4.16166 9.56788 4.4523 10.2696C4.74294 10.9712 5.23513 11.5709 5.86661 11.9929C6.49809 12.4148 7.24052 12.64 8 12.64C9.01843 12.64 9.99515 12.2355 10.7153 11.5153C11.4354 10.7952 11.84 9.81848 11.84 8.80005ZM13.12 4.64005C13.12 4.45018 13.0637 4.26457 12.9582 4.1067C12.8527 3.94883 12.7028 3.82578 12.5274 3.75312C12.352 3.68046 12.1589 3.66145 11.9727 3.69849C11.7865 3.73554 11.6154 3.82697 11.4812 3.96123C11.3469 4.09548 11.2555 4.26654 11.2184 4.45276C11.1814 4.63898 11.2004 4.83201 11.2731 5.00742C11.3457 5.18284 11.4688 5.33277 11.6267 5.43826C11.7845 5.54375 11.9701 5.60005 12.16 5.60005C12.4146 5.60005 12.6588 5.49891 12.8388 5.31887C13.0189 5.13884 13.12 4.89466 13.12 4.64005Z" fill="black" fill-opacity="0.6"/>
</svg>
