<svg width="16" height="17" viewBox="0 0 16 17" fill="none" xmlns="http://www.w3.org/2000/svg">
<path d="M0.0032107 16.8L1.08481 12.8256C0.372121 11.6039 -0.0023125 10.2144 1.07458e-05 8.80004C1.07458e-05 4.38165 3.58161 0.800049 8.00001 0.800049C12.4184 0.800049 16 4.38165 16 8.80004C16 13.2184 12.4184 16.8 8.00001 16.8C6.58623 16.8023 5.19733 16.4282 3.97601 15.716L0.0032107 16.8ZM5.11281 5.04645C5.0095 5.05286 4.90855 5.08007 4.81601 5.12645C4.72922 5.17559 4.65 5.23703 4.58081 5.30885C4.48481 5.39925 4.43041 5.47765 4.37201 5.55365C4.07634 5.93844 3.9173 6.41078 3.92001 6.89604C3.92161 7.28804 4.02401 7.66964 4.18401 8.02644C4.51121 8.74804 5.04961 9.51204 5.76081 10.22C5.93201 10.3904 6.09921 10.5616 6.27921 10.7208C7.16192 11.498 8.21381 12.0585 9.3512 12.3576L9.8064 12.4272C9.9544 12.4352 10.1024 12.424 10.2512 12.4168C10.4842 12.4048 10.7117 12.3417 10.9176 12.232C11.0224 12.1781 11.1246 12.1193 11.224 12.056C11.224 12.056 11.2584 12.0336 11.324 11.984C11.432 11.904 11.4984 11.8472 11.588 11.7536C11.6544 11.6848 11.712 11.604 11.756 11.512C11.8184 11.3816 11.8808 11.1328 11.9064 10.9256C11.9256 10.7672 11.92 10.6808 11.9176 10.6272C11.9144 10.5416 11.8432 10.4528 11.7656 10.4152L11.3 10.2064C11.3 10.2064 10.604 9.90324 10.1792 9.70964C10.1344 9.69012 10.0864 9.679 10.0376 9.67684C9.98287 9.67122 9.92756 9.67738 9.8754 9.6949C9.82325 9.71243 9.77544 9.74091 9.7352 9.77844V9.77684C9.7312 9.77684 9.6776 9.82244 9.0992 10.5232C9.06601 10.5679 9.02028 10.6016 8.96785 10.6201C8.91542 10.6386 8.85866 10.6411 8.8048 10.6272C8.75268 10.6133 8.70162 10.5957 8.652 10.5744C8.5528 10.5328 8.5184 10.5168 8.45041 10.4872L8.4464 10.4856C7.98873 10.2858 7.56498 10.0159 7.19041 9.68564C7.08961 9.59764 6.99601 9.50164 6.90001 9.40884C6.58527 9.10743 6.31098 8.76645 6.08401 8.39444L6.03681 8.31844C6.0029 8.26738 5.97549 8.21229 5.95521 8.15444C5.92481 8.03684 6.00401 7.94244 6.00401 7.94244C6.00401 7.94244 6.19841 7.72964 6.28881 7.61444C6.36408 7.5187 6.43431 7.4191 6.49921 7.31604C6.59361 7.16404 6.62321 7.00804 6.57361 6.88725C6.34961 6.34005 6.11761 5.79525 5.87921 5.25445C5.83201 5.14725 5.69201 5.07045 5.56481 5.05525C5.52161 5.05045 5.47841 5.04565 5.43521 5.04245C5.32777 5.03711 5.22011 5.03898 5.11281 5.04645Z" fill="black" fill-opacity="0.6"/>
</svg>
