<svg width="16" height="13" viewBox="0 0 16 13" fill="none" xmlns="http://www.w3.org/2000/svg">
<path d="M1.6 12.8C1.16 12.8 0.783467 12.6435 0.4704 12.3304C0.1568 12.0168 0 11.64 0 11.2V1.6C0 1.16 0.1568 0.783467 0.4704 0.4704C0.783467 0.1568 1.16 0 1.6 0H14.4C14.84 0 15.2168 0.1568 15.5304 0.4704C15.8435 0.783467 16 1.16 16 1.6V11.2C16 11.64 15.8435 12.0168 15.5304 12.3304C15.2168 12.6435 14.84 12.8 14.4 12.8H1.6ZM8 7.06C8.06667 7.06 8.13653 7.04987 8.2096 7.0296C8.2832 7.00987 8.35333 6.98 8.42 6.94L14.08 3.4C14.1867 3.33333 14.2667 3.25013 14.32 3.1504C14.3733 3.05013 14.4 2.94 14.4 2.82C14.4 2.55333 14.2867 2.35333 14.06 2.22C13.8333 2.08667 13.6 2.09333 13.36 2.24L8 5.6L2.64 2.24C2.4 2.09333 2.16667 2.08987 1.94 2.2296C1.71333 2.36987 1.6 2.56667 1.6 2.82C1.6 2.95333 1.62667 3.06987 1.68 3.1696C1.73333 3.26987 1.81333 3.34667 1.92 3.4L7.58 6.94C7.64667 6.98 7.7168 7.00987 7.7904 7.0296C7.86347 7.04987 7.93333 7.06 8 7.06Z" fill="black" fill-opacity="0.6"/>
</svg>
