<svg width="161" height="20" viewBox="0 0 161 20" fill="none" xmlns="http://www.w3.org/2000/svg">
<path d="M10.5623 16.5854L5.71502 19.5054C5.50088 19.6417 5.27701 19.7001 5.04341 19.6806C4.80981 19.6611 4.60541 19.5833 4.4302 19.447C4.255 19.3107 4.11873 19.1406 4.0214 18.9366C3.92406 18.7318 3.9046 18.5028 3.963 18.2498L5.24781 12.7309L0.955361 9.02246C0.760692 8.84726 0.639219 8.64753 0.590941 8.42327C0.541884 8.19979 0.55629 7.98098 0.634157 7.76685C0.712025 7.55271 0.828826 7.37751 0.984562 7.24124C1.1403 7.10497 1.35443 7.01737 1.62697 6.97844L7.29184 6.48203L9.48187 1.28437C9.5792 1.05076 9.73026 0.875561 9.93506 0.758759C10.1391 0.641958 10.3481 0.583557 10.5623 0.583557C10.7764 0.583557 10.9859 0.641958 11.1907 0.758759C11.3947 0.875561 11.5454 1.05076 11.6427 1.28437L13.8327 6.48203L19.4976 6.97844C19.7701 7.01737 19.9843 7.10497 20.14 7.24124C20.2957 7.37751 20.4125 7.55271 20.4904 7.76685C20.5683 7.98098 20.5831 8.19979 20.5348 8.42327C20.4857 8.64753 20.3639 8.84726 20.1692 9.02246L15.8767 12.7309L17.1616 18.2498C17.22 18.5028 17.2005 18.7318 17.1032 18.9366C17.0058 19.1406 16.8696 19.3107 16.6944 19.447C16.5192 19.5833 16.3147 19.6611 16.0811 19.6806C15.8475 19.7001 15.6237 19.6417 15.4095 19.5054L10.5623 16.5854Z" fill="#FFBF00"/>
<path d="M45.5623 16.5854L40.715 19.5054C40.5009 19.6417 40.277 19.7001 40.0434 19.6806C39.8098 19.6611 39.6054 19.5833 39.4302 19.447C39.255 19.3107 39.1187 19.1406 39.0214 18.9366C38.9241 18.7318 38.9046 18.5028 38.963 18.2498L40.2478 12.7309L35.9554 9.02246C35.7607 8.84726 35.6392 8.64753 35.5909 8.42327C35.5419 8.19979 35.5563 7.98098 35.6342 7.76685C35.712 7.55271 35.8288 7.37751 35.9846 7.24124C36.1403 7.10497 36.3544 7.01737 36.627 6.97844L42.2918 6.48203L44.4819 1.28437C44.5792 1.05076 44.7303 0.875561 44.9351 0.758759C45.1391 0.641958 45.3481 0.583557 45.5623 0.583557C45.7764 0.583557 45.9859 0.641958 46.1907 0.758759C46.3947 0.875561 46.5454 1.05076 46.6427 1.28437L48.8327 6.48203L54.4976 6.97844C54.7701 7.01737 54.9843 7.10497 55.14 7.24124C55.2957 7.37751 55.4125 7.55271 55.4904 7.76685C55.5683 7.98098 55.5831 8.19979 55.5348 8.42327C55.4857 8.64753 55.3639 8.84726 55.1692 9.02246L50.8767 12.7309L52.1616 18.2498C52.22 18.5028 52.2005 18.7318 52.1032 18.9366C52.0058 19.1406 51.8696 19.3107 51.6944 19.447C51.5192 19.5833 51.3147 19.6611 51.0811 19.6806C50.8475 19.7001 50.6237 19.6417 50.4095 19.5054L45.5623 16.5854Z" fill="#FFBF00"/>
<path d="M80.5623 16.5854L75.715 19.5054C75.5009 19.6417 75.277 19.7001 75.0434 19.6806C74.8098 19.6611 74.6054 19.5833 74.4302 19.447C74.255 19.3107 74.1187 19.1406 74.0214 18.9366C73.9241 18.7318 73.9046 18.5028 73.963 18.2498L75.2478 12.7309L70.9554 9.02246C70.7607 8.84726 70.6392 8.64753 70.5909 8.42327C70.5419 8.19979 70.5563 7.98098 70.6342 7.76685C70.712 7.55271 70.8288 7.37751 70.9846 7.24124C71.1403 7.10497 71.3544 7.01737 71.627 6.97844L77.2918 6.48203L79.4819 1.28437C79.5792 1.05076 79.7303 0.875561 79.9351 0.758759C80.1391 0.641958 80.3481 0.583557 80.5623 0.583557C80.7764 0.583557 80.9859 0.641958 81.1907 0.758759C81.3947 0.875561 81.5454 1.05076 81.6427 1.28437L83.8327 6.48203L89.4976 6.97844C89.7701 7.01737 89.9843 7.10497 90.14 7.24124C90.2957 7.37751 90.4125 7.55271 90.4904 7.76685C90.5683 7.98098 90.5831 8.19979 90.5348 8.42327C90.4857 8.64753 90.3639 8.84726 90.1692 9.02246L85.8767 12.7309L87.1616 18.2498C87.22 18.5028 87.2005 18.7318 87.1032 18.9366C87.0058 19.1406 86.8696 19.3107 86.6944 19.447C86.5192 19.5833 86.3147 19.6611 86.0811 19.6806C85.8475 19.7001 85.6237 19.6417 85.4095 19.5054L80.5623 16.5854Z" fill="#FFBF00"/>
<path d="M115.562 16.5854L110.715 19.5054C110.501 19.6417 110.277 19.7001 110.043 19.6806C109.81 19.6611 109.605 19.5833 109.43 19.447C109.255 19.3107 109.119 19.1406 109.021 18.9366C108.924 18.7318 108.905 18.5028 108.963 18.2498L110.248 12.7309L105.955 9.02246C105.761 8.84726 105.639 8.64753 105.591 8.42327C105.542 8.19979 105.556 7.98098 105.634 7.76685C105.712 7.55271 105.829 7.37751 105.985 7.24124C106.14 7.10497 106.354 7.01737 106.627 6.97844L112.292 6.48203L114.482 1.28437C114.579 1.05076 114.73 0.875561 114.935 0.758759C115.139 0.641958 115.348 0.583557 115.562 0.583557C115.776 0.583557 115.986 0.641958 116.191 0.758759C116.395 0.875561 116.545 1.05076 116.643 1.28437L118.833 6.48203L124.498 6.97844C124.77 7.01737 124.984 7.10497 125.14 7.24124C125.296 7.37751 125.413 7.55271 125.49 7.76685C125.568 7.98098 125.583 8.19979 125.535 8.42327C125.486 8.64753 125.364 8.84726 125.169 9.02246L120.877 12.7309L122.162 18.2498C122.22 18.5028 122.2 18.7318 122.103 18.9366C122.006 19.1406 121.87 19.3107 121.694 19.447C121.519 19.5833 121.315 19.6611 121.081 19.6806C120.848 19.7001 120.624 19.6417 120.41 19.5054L115.562 16.5854Z" fill="#FFBF00"/>
<path d="M150.562 16.5854L145.715 19.5054C145.501 19.6417 145.277 19.7001 145.043 19.6806C144.81 19.6611 144.605 19.5833 144.43 19.447C144.255 19.3107 144.119 19.1406 144.021 18.9366C143.924 18.7318 143.905 18.5028 143.963 18.2498L145.248 12.7309L140.955 9.02246C140.761 8.84726 140.639 8.64753 140.591 8.42327C140.542 8.19979 140.556 7.98098 140.634 7.76685C140.712 7.55271 140.829 7.37751 140.985 7.24124C141.14 7.10497 141.354 7.01737 141.627 6.97844L147.292 6.48203L149.482 1.28437C149.579 1.05076 149.73 0.875561 149.935 0.758759C150.139 0.641958 150.348 0.583557 150.562 0.583557C150.776 0.583557 150.986 0.641958 151.191 0.758759C151.395 0.875561 151.545 1.05076 151.643 1.28437L153.833 6.48203L159.498 6.97844C159.77 7.01737 159.984 7.10497 160.14 7.24124C160.296 7.37751 160.413 7.55271 160.49 7.76685C160.568 7.98098 160.583 8.19979 160.535 8.42327C160.486 8.64753 160.364 8.84726 160.169 9.02246L155.877 12.7309L157.162 18.2498C157.22 18.5028 157.2 18.7318 157.103 18.9366C157.006 19.1406 156.87 19.3107 156.694 19.447C156.519 19.5833 156.315 19.6611 156.081 19.6806C155.848 19.7001 155.624 19.6417 155.41 19.5054L150.562 16.5854Z" fill="#FFBF00"/>
</svg>
