<svg width="89" height="47" viewBox="0 0 89 47" fill="none" xmlns="http://www.w3.org/2000/svg">
<g filter="url(#filter0_d_266_676)">
<mask id="mask0_266_676" style="mask-type:luminance" maskUnits="userSpaceOnUse" x="7" y="6" width="75" height="33">
<path d="M7 6H81.9637V38.907H7V6Z" fill="white"/>
</mask>
<g mask="url(#mask0_266_676)">
<path d="M81.7621 22.4665C82.062 21.7688 82.027 20.9651 81.6525 20.2912L80.0089 17.3352C80.2116 17.0891 80.3979 16.8272 80.5667 16.5505C81.1921 15.5244 81.5092 14.3855 81.5092 13.1653C81.5092 11.2207 80.7859 9.50912 79.417 8.21532C78.0872 6.95994 76.3724 6.29619 74.4578 6.29619H69.3678H67.7717H59.6819C58.689 6.29619 57.8353 6.8834 57.4427 7.72837C56.7371 7.21007 55.9447 6.79535 55.0692 6.4935C53.6214 5.99503 52.0891 5.8733 50.5136 6.1323C48.8845 6.4006 47.4713 7.01498 46.2863 7.96159C45.9521 6.99308 45.0349 6.29619 43.953 6.29619H40.7173C39.7377 6.29619 38.8911 6.86676 38.4919 7.6937L38.2488 7.34734C37.7864 6.68859 37.032 6.29619 36.2269 6.29619H33.7001H31.7552H28.5008C27.8007 6.29619 27.1689 6.58751 26.7193 7.05533C26.2697 6.58751 25.6378 6.29619 24.9378 6.29619H21.6836C21.3173 6.29619 20.047 6.33252 19.7115 6.33252H16.4942C15.7947 6.33252 15.1632 6.62314 14.7137 7.09055C14.2645 6.62314 13.633 6.33252 12.9335 6.33252H9.69799C8.33404 6.33252 7.22798 7.43844 7.22798 8.80253V21.4551C7.22798 22.406 7.76625 23.2302 8.55395 23.6428C7.8902 24.6398 7.54523 25.8157 7.54523 27.1142C7.54523 28.8224 8.11496 30.024 8.75389 30.8343L8.22825 31.1398C7.19637 31.7402 6.7413 32.9928 7.14784 34.1155C7.68527 35.6009 8.64075 36.7933 9.98598 37.6589C11.2709 38.4871 12.8463 38.907 14.6677 38.907C16.6868 38.907 18.3838 38.3721 19.7114 37.3167C20.1705 36.9521 20.5619 36.5385 20.884 36.0817V36.1644C20.884 37.5285 21.9899 38.6343 23.354 38.6343C23.354 38.6343 27.7965 38.6685 28.1338 38.6685L31.7152 38.6526C32.8067 38.6526 33.7689 37.9361 34.0817 36.8904L34.2485 36.3678L34.6256 36.2779L34.8918 36.8108C35.2274 37.8208 36.1744 38.6402 37.2384 38.6402L40.5569 38.7191C40.9558 38.7191 42.2167 38.6804 42.5017 38.6804L45.8141 38.6343C46.7621 38.6343 47.5845 38.0993 47.9985 37.3155C48.4125 38.0993 49.2348 38.6343 50.1829 38.6343H53.4359C54.5365 38.6343 55.4682 37.9138 55.7873 36.9192C57.4122 38.2384 59.3429 38.907 61.5407 38.907C63.601 38.907 65.4267 38.3203 66.9853 37.1605C67.3683 38.0279 68.2349 38.6343 69.2443 38.6343H72.4974C73.4766 38.6343 74.3227 38.0645 74.7223 37.2384L74.9641 37.583C75.4265 38.2419 76.1808 38.6343 76.986 38.6343H79.4938C80.8578 38.6343 81.9637 37.5285 81.9637 36.1644V23.4432C81.9637 23.0961 81.8914 22.7661 81.7621 22.4665Z" fill="white"/>
</g>
<path d="M13.9022 36.269C12.5574 36.269 11.4426 35.9845 10.5585 35.4149C9.67376 34.8454 9.05591 34.0763 8.70483 33.1068L11.4852 31.4894C11.9577 32.6161 12.7936 33.1796 13.993 33.1796C14.9862 33.1796 15.4831 32.8973 15.4831 32.3329C15.4831 31.9606 15.1968 31.6604 14.624 31.4322C14.3825 31.3322 13.851 31.1634 13.0301 30.9261C11.8667 30.587 10.9461 30.1115 10.2675 29.4994C9.5889 28.8878 9.24975 28.0365 9.24975 26.9461C9.24975 25.7711 9.67057 24.82 10.513 24.093C11.3548 23.366 12.4058 23.0026 13.6661 23.0026C14.7318 23.0026 15.677 23.2511 16.5009 23.7476C17.3249 24.2445 17.9548 24.9653 18.3909 25.9103L15.6649 27.5096C15.2652 26.5645 14.6048 26.092 13.6842 26.092C13.2963 26.092 13.0027 26.1713 12.8027 26.3296C12.6029 26.4881 12.5029 26.6889 12.5029 26.9326C12.5029 27.2129 12.6508 27.4505 12.9471 27.6453C13.2433 27.8403 13.8207 28.0659 14.6794 28.3213C15.2846 28.5394 15.7783 28.7171 16.1609 28.8548C16.5433 28.9928 16.9591 29.2098 17.4078 29.5061C17.8566 29.8021 18.1901 30.1829 18.4086 30.6483C18.6269 31.1138 18.7361 31.6607 18.7361 32.289C18.7361 33.5371 18.2938 34.5125 17.4098 35.2148C16.5251 35.9178 15.356 36.269 13.9022 36.269Z" fill="black"/>
<path d="M29.3271 23.0026V26.1465H26.1831V35.7238H22.9301V26.1465H19.7863V23.0026H29.3271Z" fill="black"/>
<path d="M48.9327 23.0026V26.1465H45.7888V35.7238H42.5357V26.1465H39.3918V23.0026H48.9327Z" fill="black"/>
<mask id="mask1_266_676" style="mask-type:luminance" maskUnits="userSpaceOnUse" x="7" y="6" width="75" height="33">
<path d="M7 39H81.9637V6.09293H7V39Z" fill="#592913"/>
</mask>
<g mask="url(#mask1_266_676)">
<path d="M49.6208 35.8625H52.8739V23.1413H49.6208V35.8625Z" fill="black"/>
</g>
<mask id="mask2_266_676" style="mask-type:luminance" maskUnits="userSpaceOnUse" x="7" y="6" width="75" height="33">
<path d="M7 39H81.9637V6.09293H7V39Z" fill="#592913"/>
</mask>
<g mask="url(#mask2_266_676)">
<path d="M58.9515 32.2551C59.6058 32.9033 60.4235 33.2275 61.4049 33.2275C62.3863 33.2275 63.2039 32.9033 63.8584 32.2551C64.5124 31.6072 64.8395 30.7802 64.8395 29.7744C64.8395 28.769 64.5124 27.9421 63.8584 27.2939C63.2039 26.6458 62.3863 26.3216 61.4049 26.3216C60.4235 26.3216 59.6058 26.6458 58.9515 27.2939C58.2973 27.9421 57.9701 28.769 57.9701 29.7744C57.9701 30.7802 58.2973 31.6072 58.9515 32.2551ZM66.139 34.4905C64.8487 35.7689 63.2704 36.4077 61.4049 36.4077C59.539 36.4077 57.9611 35.7689 56.6708 34.4905C55.3805 33.2124 54.7353 31.6403 54.7353 29.7744C54.7353 27.9089 55.3805 26.3369 56.6708 25.0586C57.9611 23.7805 59.539 23.1413 61.4049 23.1413C63.2704 23.1413 64.8487 23.7805 66.139 25.0586C67.4293 26.3369 68.0745 27.9089 68.0745 29.7744C68.0745 31.6403 67.4293 33.2124 66.139 34.4905Z" fill="black"/>
</g>
<mask id="mask3_266_676" style="mask-type:luminance" maskUnits="userSpaceOnUse" x="7" y="6" width="75" height="33">
<path d="M7 39H81.9637V6.09293H7V39Z" fill="#592913"/>
</mask>
<g mask="url(#mask3_266_676)">
<path d="M76.2412 23.1413H79.4759V35.8625H76.9681L72.4795 29.4655V35.8625H69.2264V23.1413H71.7524L76.2412 29.5383V23.1413Z" fill="black"/>
</g>
<mask id="mask4_266_676" style="mask-type:luminance" maskUnits="userSpaceOnUse" x="7" y="6" width="75" height="33">
<path d="M7 39H81.9637V6.09293H7V39Z" fill="#592913"/>
</mask>
<g mask="url(#mask4_266_676)">
<path d="M34.6488 30.1212L32.6669 30.4553L33.7001 26.9417L34.6488 30.1212ZM31.5533 23.1413L27.458 35.9931H31.0151L31.4828 34.4293L31.7522 33.527L35.5196 32.8516L36.0713 34.5235L36.5592 35.9931H39.9427L35.6912 23.1413H31.5533Z" fill="black"/>
</g>
<mask id="mask5_266_676" style="mask-type:luminance" maskUnits="userSpaceOnUse" x="7" y="6" width="75" height="33">
<path d="M7 39H81.9637V6.09293H7V39Z" fill="#592913"/>
</mask>
<g mask="url(#mask5_266_676)">
<path d="M16.3536 13.3703L12.7928 14.0085V13.0083V8.65021H9.55725V21.3028H12.7928V16.9163L16.3536 16.2781V16.772V21.3028H19.5709V8.65021H16.3536V13.3703Z" fill="black"/>
</g>
<mask id="mask6_266_676" style="mask-type:luminance" maskUnits="userSpaceOnUse" x="7" y="6" width="75" height="33">
<path d="M7 39H81.9637V6.09293H7V39Z" fill="#592913"/>
</mask>
<g mask="url(#mask6_266_676)">
<path d="M30.1537 20.4304C29.2143 21.2425 28.0054 21.6485 26.5271 21.6485C25.0482 21.6485 23.8391 21.2425 22.9002 20.4304C21.9607 19.6185 21.4911 18.5398 21.4911 17.1946V8.65021H24.7453V16.8855C24.7453 17.9519 25.3389 18.4852 26.5271 18.4852C27.7145 18.4852 28.3084 17.9519 28.3084 16.8855V8.65021H31.5626V17.1946C31.5626 18.5398 31.0927 19.6185 30.1537 20.4304Z" fill="black"/>
</g>
<mask id="mask7_266_676" style="mask-type:luminance" maskUnits="userSpaceOnUse" x="7" y="6" width="75" height="33">
<path d="M7 39H81.9637V6.09293H7V39Z" fill="#592913"/>
</mask>
<g mask="url(#mask7_266_676)">
<path d="M40.4419 8.65021H43.6777V21.3757H41.1691L36.6788 14.9765V21.3757H33.4249V8.65021H35.9516L40.4419 15.0493V8.65021Z" fill="black"/>
</g>
<path d="M58.2585 13.3283L58.4682 14.602C58.7714 16.4436 58.44 18.0305 57.474 19.3624C56.508 20.6945 55.1041 21.5121 53.2626 21.8152C51.3012 22.1383 49.5866 21.7756 48.1182 20.7276C46.6496 19.6798 45.7641 18.235 45.4608 16.3934C45.1577 14.552 45.5297 12.8939 46.5765 11.4194C47.6235 9.94535 49.0736 9.05533 50.9274 8.75014C52.0993 8.55714 53.2158 8.64366 54.2772 9.00929C55.3383 9.3752 56.2159 9.94924 56.9097 10.7314L54.4401 12.7411C54.1241 12.3876 53.7041 12.1315 53.1804 11.9718C52.6568 11.8126 52.09 11.783 51.4801 11.8833C50.4872 12.0468 49.7273 12.5035 49.2 13.2535C48.6723 14.0038 48.4915 14.8811 48.6568 15.8856C48.8162 16.8543 49.2651 17.6219 50.0031 18.188C50.7412 18.7546 51.6782 18.944 52.8144 18.7569C54.2733 18.5168 55.1456 17.8084 55.4306 16.6312L52.3812 17.1333L51.9264 14.3708L58.2585 13.3283Z" fill="black"/>
<path d="M62.8749 18.8558H67.8013V21.91H59.6208V9.18448H67.7105V12.2203H62.8749V13.9838H67.2561V16.9834H62.8749V18.8558Z" fill="black"/>
<path d="M72.3915 12.184V15.3362L74.1386 15.1174C74.4548 15.0977 74.9185 14.9232 75.1729 14.6564C75.4274 14.3899 75.5545 14.0445 75.5545 13.6202C75.5545 13.1961 75.4274 12.8507 75.1729 12.584C74.9185 12.3174 74.591 12.184 74.1911 12.184H72.3915ZM75.7728 21.91L73.555 17.8014L72.3915 17.997V21.91H69.1373V9.18448H74.2274C75.5243 9.18448 76.6118 9.59961 77.4907 10.4297C78.3692 11.2599 78.8088 12.3112 78.8088 13.5837C78.8088 14.3475 78.6148 15.0472 78.2271 15.6835C77.8389 16.3198 77.3117 16.8261 76.6455 17.2015L79.2633 21.91H75.7728Z" fill="black"/>
</g>
<defs>
<filter id="filter0_d_266_676" x="0" y="0" width="88.9636" height="46.907" filterUnits="userSpaceOnUse" color-interpolation-filters="sRGB">
<feFlood flood-opacity="0" result="BackgroundImageFix"/>
<feColorMatrix in="SourceAlpha" type="matrix" values="0 0 0 0 0 0 0 0 0 0 0 0 0 0 0 0 0 0 127 0" result="hardAlpha"/>
<feOffset dy="1"/>
<feGaussianBlur stdDeviation="3.5"/>
<feColorMatrix type="matrix" values="0 0 0 0 0.733418 0 0 0 0 0.733418 0 0 0 0 0.733418 0 0 0 0.5 0"/>
<feBlend mode="normal" in2="BackgroundImageFix" result="effect1_dropShadow_266_676"/>
<feBlend mode="normal" in="SourceGraphic" in2="effect1_dropShadow_266_676" result="shape"/>
</filter>
</defs>
</svg>
