<svg width="98" height="100" viewBox="0 0 98 100" fill="none" xmlns="http://www.w3.org/2000/svg">
<g filter="url(#filter0_d_266_391)">
<circle cx="48" cy="46" r="25" fill="#D8B2B2"/>
</g>
<path d="M56.3568 36.6376C55.205 35.48 53.8331 34.5622 52.3212 33.9376C50.8092 33.3131 49.1873 32.9944 47.5502 33.0001C40.691 33.0001 35.1005 38.5626 35.1005 45.3876C35.1005 47.5751 35.6784 49.7001 36.7588 51.5751L35 58.0001L41.5955 56.2751C43.4171 57.2626 45.4648 57.7876 47.5502 57.7876C54.4095 57.7876 60 52.2251 60 45.4001C60 42.0876 58.706 38.9751 56.3568 36.6376ZM47.5502 55.6876C45.691 55.6876 43.8693 55.1876 42.2739 54.2501L41.897 54.0251L37.9774 55.0501L39.0201 51.2501L38.7688 50.8626C37.7359 49.2213 37.1874 47.3241 37.1859 45.3876C37.1859 39.7126 41.8342 35.0876 47.5377 35.0876C50.3015 35.0876 52.902 36.1626 54.8492 38.1126C55.8134 39.0675 56.5775 40.2034 57.0972 41.4544C57.6169 42.7053 57.8819 44.0465 57.8769 45.4001C57.902 51.0751 53.2538 55.6876 47.5502 55.6876ZM53.2286 47.9876C52.9146 47.8376 51.3819 47.0876 51.1055 46.9751C50.8166 46.8751 50.6156 46.8251 50.402 47.1251C50.1884 47.4376 49.598 48.1376 49.4221 48.3376C49.2462 48.5501 49.0578 48.5751 48.7437 48.4126C48.4296 48.2626 47.4246 47.9251 46.2437 46.8751C45.3141 46.0501 44.6985 45.0376 44.51 44.7251C44.3342 44.4126 44.4849 44.2501 44.6482 44.0876C44.7864 43.9501 44.9623 43.7251 45.1131 43.5501C45.2638 43.3751 45.3266 43.2376 45.4271 43.0376C45.5276 42.8251 45.4774 42.6501 45.402 42.5001C45.3266 42.3501 44.6985 40.8251 44.4472 40.2001C44.196 39.6001 43.9322 39.6751 43.7437 39.6626H43.1407C42.9271 39.6626 42.6005 39.7376 42.3116 40.0501C42.0352 40.3626 41.2312 41.1126 41.2312 42.6376C41.2312 44.1626 42.3492 45.6376 42.5 45.8376C42.6508 46.0501 44.6985 49.1751 47.8141 50.5126C48.5553 50.8376 49.1332 51.0251 49.5854 51.1626C50.3266 51.4001 51.005 51.3626 51.5452 51.2876C52.1482 51.2001 53.392 50.5376 53.6432 49.8126C53.907 49.0876 53.907 48.4751 53.8191 48.3376C53.7312 48.2001 53.5427 48.1376 53.2286 47.9876Z" fill="black"/>
<defs>
<filter id="filter0_d_266_391" x="-2" y="0" width="100" height="100" filterUnits="userSpaceOnUse" color-interpolation-filters="sRGB">
<feFlood flood-opacity="0" result="BackgroundImageFix"/>
<feColorMatrix in="SourceAlpha" type="matrix" values="0 0 0 0 0 0 0 0 0 0 0 0 0 0 0 0 0 0 127 0" result="hardAlpha"/>
<feOffset dy="4"/>
<feGaussianBlur stdDeviation="12.5"/>
<feComposite in2="hardAlpha" operator="out"/>
<feColorMatrix type="matrix" values="0 0 0 0 0.847059 0 0 0 0 0.698039 0 0 0 0 0.698039 0 0 0 1 0"/>
<feBlend mode="normal" in2="BackgroundImageFix" result="effect1_dropShadow_266_391"/>
<feBlend mode="normal" in="SourceGraphic" in2="effect1_dropShadow_266_391" result="shape"/>
</filter>
</defs>
</svg>
