<?xml version="1.0" encoding="UTF-8"?>
<svg width="102px" height="53px" viewBox="0 0 102 53" version="1.1" xmlns="http://www.w3.org/2000/svg" xmlns:xlink="http://www.w3.org/1999/xlink">
    <!-- Generator: Sketch 51.3 (57544) - http://www.bohemiancoding.com/sketch -->
    <title>hungerstation</title>
    <desc>Created with Sketch.</desc>
    <defs>
        <filter x="-12.5%" y="-25.0%" width="125.0%" height="155.0%" filterUnits="objectBoundingBox" id="filter-1">
            <feOffset dx="0" dy="1" in="SourceAlpha" result="shadowOffsetOuter1"></feOffset>
            <feGaussianBlur stdDeviation="3.5" in="shadowOffsetOuter1" result="shadowBlurOuter1"></feGaussianBlur>
            <feColorMatrix values="0 0 0 0 0.733418367   0 0 0 0 0.733418367   0 0 0 0 0.733418367  0 0 0 0.5 0" type="matrix" in="shadowBlurOuter1" result="shadowMatrixOuter1"></feColorMatrix>
            <feMerge>
                <feMergeNode in="shadowMatrixOuter1"></feMergeNode>
                <feMergeNode in="SourceGraphic"></feMergeNode>
            </feMerge>
        </filter>
        <polygon id="path-2" points="0 0 87.9425804 0 87.9425804 38.6043787 0 38.6043787"></polygon>
        <polygon id="path-4" points="0 38.6045102 87.9425804 38.6045102 87.9425804 0 0 0"></polygon>
        <polygon id="path-6" points="0 38.6045102 87.9425804 38.6045102 87.9425804 0 0 0"></polygon>
        <polygon id="path-8" points="0 38.6045102 87.9425804 38.6045102 87.9425804 0 0 0"></polygon>
        <polygon id="path-10" points="0 38.6045102 87.9425804 38.6045102 87.9425804 0 0 0"></polygon>
        <polygon id="path-12" points="0 38.6045102 87.9425804 38.6045102 87.9425804 0 0 0"></polygon>
        <polygon id="path-14" points="0 38.6045102 87.9425804 38.6045102 87.9425804 0 0 0"></polygon>
        <polygon id="path-16" points="0 38.6045102 87.9425804 38.6045102 87.9425804 0 0 0"></polygon>
    </defs>
    <g id="Symbols" stroke="none" stroke-width="1" fill="none" fill-rule="evenodd">
        <g id="logo/hungerstation-shadow" transform="translate(7.000000, 6.000000)">
            <g id="hungerstation" filter="url(#filter-1)">
                <g id="Group-3" transform="translate(0.000000, 0.053678)">
                    <g id="Fill-1-Clipped">
                        <mask id="mask-3" fill="white">
                            <use xlink:href="#path-2"></use>
                        </mask>
                        <g id="path-1"></g>
                        <path d="M87.7061117,19.3174138 C88.057949,18.4988999 88.0169582,17.5561125 87.5776089,16.7655764 L85.6494166,13.2977909 C85.8872281,13.0090663 86.1056828,12.7017983 86.3038048,12.3771254 C87.0374093,11.1734286 87.4094166,9.83732506 87.4094166,8.40590177 C87.4094166,6.1245709 86.560973,4.11667441 84.9550137,2.59887774 C83.394925,1.12613837 81.3832873,0.347476631 79.137254,0.347476631 L73.1659416,0.347476631 L71.2935423,0.347476631 L61.8030433,0.347476631 C60.6382226,0.347476631 59.6367142,1.03634909 59.1762189,2.02760972 C58.3484333,1.41958014 57.4188215,0.933058886 56.3917752,0.578944284 C54.6932614,-0.00582466275 52.8956865,-0.148641668 51.0473612,0.155210457 C49.1362484,0.46996092 47.4784,1.19071508 46.0881301,2.30120676 C45.6961154,1.16501452 44.620108,0.347476631 43.3508584,0.347476631 L39.5549841,0.347476631 C38.4057789,0.347476631 37.4125664,1.01682968 36.9442632,1.98694428 L36.6591172,1.58061526 C36.1166403,0.807809348 35.2315978,0.347476631 34.2871837,0.347476631 L31.3228362,0.347476631 L29.04118,0.347476631 L25.2233464,0.347476631 C24.4020673,0.347476631 23.6608178,0.689228942 23.1334684,1.23804964 C22.6059564,0.689228942 21.8647069,0.347476631 21.0434277,0.347476631 L17.2259194,0.347476631 C16.7961671,0.347476631 15.3058603,0.390094006 14.9123815,0.390094006 L11.1379786,0.390094006 C10.3173501,0.390094006 9.57658855,0.731033008 9.0492392,1.27936573 C8.52221517,0.731033008 7.78145362,0.390094006 6.96082515,0.390094006 L3.16511351,0.390094006 C1.56500999,0.390094006 0.267457314,1.68748402 0.267457314,3.2877502 L0.267457314,18.1309591 C0.267457314,19.2464933 0.898910179,20.2133546 1.82299151,20.697436 C1.04432977,21.8669739 0.639627369,23.2465081 0.639627369,24.7698352 C0.639627369,26.7738278 1.30800445,28.1834545 2.05754974,29.1340496 L1.44089909,29.4923935 C0.230370438,30.1967188 -0.303485385,31.6662049 0.17343883,32.983277 C0.803915724,34.7258722 1.92481776,36.1247631 3.50296193,37.1402604 C5.01034826,38.1118389 6.85851092,38.6043787 8.9952355,38.6043787 C11.3639157,38.6043787 13.3547327,37.9768297 14.9122189,36.7388112 C15.4507919,36.3110108 15.909986,35.8257909 16.2878492,35.2899831 L16.2878492,35.3869295 C16.2878492,36.9871957 17.5852392,38.284423 19.1855054,38.284423 C19.1855054,38.284423 24.3971874,38.3246005 24.7927808,38.3246005 L28.9943335,38.3058944 C30.2748067,38.3058944 31.4035165,37.4654212 31.7704813,36.2386264 L31.9661634,35.6255543 L32.4086033,35.5201495 L32.7209139,36.1452585 C33.1145553,37.3300866 34.2255349,38.2914175 35.4738011,38.2914175 L39.3667845,38.383972 C39.8347623,38.383972 41.3140081,38.3385894 41.648278,38.3385894 L45.5342669,38.284423 C46.6463852,38.284423 47.611132,37.656874 48.0968399,36.7373472 C48.5825479,37.656874 49.547132,38.284423 50.659413,38.284423 L54.47562,38.284423 C55.7668288,38.284423 56.8597531,37.4392326 57.2342004,36.27246 C59.1404333,37.8200238 61.4053353,38.6043787 63.9836865,38.6043787 C66.4006773,38.6043787 68.5424444,37.9161569 70.370925,36.5554914 C70.8201967,37.5731032 71.8368325,38.284423 73.02101,38.284423 L76.8373797,38.284423 C77.9860969,38.284423 78.9786588,37.6160459 79.4474499,36.6469073 L79.731132,37.0511217 C80.2736089,37.8240903 81.1584887,38.284423 82.1030654,38.284423 L85.0451283,38.284423 C86.6452318,38.284423 87.9426218,36.9871957 87.9426218,35.3869295 L87.9426218,20.4632031 C87.9426218,20.0560607 87.8578751,19.6689258 87.7061117,19.3174138" id="Fill-1" fill="#FFFFFF" fill-rule="nonzero" mask="url(#mask-3)"></path>
                    </g>
                </g>
                <path d="M8.09721257,35.5633124 C6.51955638,35.5633124 5.21175601,35.2295305 4.17462477,34.5613161 C3.13668022,33.8932643 2.41185952,32.9909797 2,31.8536488 L5.26169316,29.9561996 C5.81604436,31.2779889 6.79673198,31.9390462 8.20375601,31.9390462 C9.36890203,31.9390462 9.9518817,31.6078669 9.9518817,30.945671 C9.9518817,30.5089242 9.61598521,30.1567616 8.94402957,29.8890203 C8.66067283,29.7717412 8.03719039,29.5737819 7.07407024,29.295305 C5.70933826,28.897597 4.62926433,28.3396673 3.83319778,27.6216784 C3.03713124,26.9041774 2.63926063,25.9054344 2.63926063,24.6262625 C2.63926063,23.2478669 3.132939,22.1320074 4.12127172,21.2791719 C5.10879113,20.4263364 6.3417671,20 7.82019963,20 C9.07041774,20 10.1792828,20.2914898 11.1458189,20.8739815 C12.1125176,21.4569612 12.8514898,22.3024769 13.363061,23.4111793 L10.1651312,25.2873198 C9.69617745,24.1786174 8.92141959,23.6242662 7.84150832,23.6242662 C7.38638078,23.6242662 7.04202588,23.7173087 6.80730499,23.9030684 C6.57290943,24.0889908 6.45563031,24.324525 6.45563031,24.6104843 C6.45563031,24.9392237 6.62919039,25.2180259 6.97679852,25.4465656 C7.32424399,25.675268 8.00156747,25.9399187 9.00893161,26.2395416 C9.71895009,26.4954085 10.2981885,26.7039409 10.7469723,26.865464 C11.1955933,27.0273124 11.6834159,27.281878 12.2097893,27.6294861 C12.7363253,27.9767689 13.1275268,28.4234381 13.3838817,28.9694935 C13.6399113,29.515549 13.7680887,30.1570869 13.7680887,30.8942699 C13.7680887,32.3583882 13.2491978,33.5027135 12.2120665,34.3265952 C11.1742847,35.1512902 9.80272089,35.5633124 8.09721257,35.5633124" id="Fill-4" fill="#592913" fill-rule="nonzero"></path>
                <polygon id="Fill-6" fill="#592913" fill-rule="nonzero" points="26.1927542 20 26.1927542 23.6881922 22.5043993 23.6881922 22.5043993 34.9237264 18.6881922 34.9237264 18.6881922 23.6881922 15 23.6881922 15 20"></polygon>
                <polygon id="Fill-8" fill="#592913" fill-rule="nonzero" points="49.1927542 20 49.1927542 23.6881922 45.5045619 23.6881922 45.5045619 34.9237264 41.6881922 34.9237264 41.6881922 23.6881922 38 23.6881922 38 20"></polygon>
                <g id="Fill-10-Clipped" transform="translate(0.000000, 0.162662)">
                    <mask id="mask-5" fill="white">
                        <use xlink:href="#path-4"></use>
                    </mask>
                    <g id="path-3"></g>
                    <polygon id="Fill-10" fill="#592913" fill-rule="nonzero" mask="url(#mask-5)" points="50 34.9237264 53.8163697 34.9237264 53.8163697 20 50 20"></polygon>
                </g>
                <g id="Fill-12-Clipped" transform="translate(0.000000, 0.162662)">
                    <mask id="mask-7" fill="white">
                        <use xlink:href="#path-6"></use>
                    </mask>
                    <g id="path-3"></g>
                    <path d="M60.9462181,30.691756 C61.7138189,31.4521996 62.6730351,31.8325028 63.8243549,31.8325028 C64.9756747,31.8325028 65.9348909,31.4521996 66.7026543,30.691756 C67.4699298,29.9316377 67.8536488,28.9615231 67.8536488,27.7815749 C67.8536488,26.6021146 67.4699298,25.632 66.7026543,24.8715564 C65.9348909,24.1112754 64.9756747,23.7309723 63.8243549,23.7309723 C62.6730351,23.7309723 61.7138189,24.1112754 60.9462181,24.8715564 C60.17878,25.632 59.7948983,26.6021146 59.7948983,27.7815749 C59.7948983,28.9615231 60.17878,29.9316377 60.9462181,30.691756 M69.3781146,33.3141885 C67.8643845,34.8139298 66.0128059,35.5633124 63.8243549,35.5633124 C61.6354159,35.5633124 59.7843253,34.8139298 58.2705952,33.3141885 C56.7568651,31.8147726 56,29.9705139 56,27.7815749 C56,25.5931238 56.7568651,23.7488651 58.2705952,22.2492865 C59.7843253,20.7498706 61.6354159,20 63.8243549,20 C66.0128059,20 67.8643845,20.7498706 69.3781146,22.2492865 C70.8918447,23.7488651 71.6487098,25.5931238 71.6487098,27.7815749 C71.6487098,29.9705139 70.8918447,31.8147726 69.3781146,33.3141885" id="Fill-12" fill="#592913" fill-rule="nonzero" mask="url(#mask-7)"></path>
                </g>
                <g id="Fill-13-Clipped" transform="translate(0.000000, 0.162662)">
                    <mask id="mask-9" fill="white">
                        <use xlink:href="#path-8"></use>
                    </mask>
                    <g id="path-3"></g>
                    <polygon id="Fill-13" fill="#592913" fill-rule="nonzero" mask="url(#mask-9)" points="81.2293826 20 85.0241183 20 85.0241183 34.9237264 82.0820555 34.9237264 76.8163697 27.4191645 76.8163697 34.9237264 73 34.9237264 73 20 75.9633715 20 81.2293826 27.5045619"></polygon>
                </g>
                <g id="Fill-14-Clipped" transform="translate(0.000000, 0.162662)">
                    <mask id="mask-11" fill="white">
                        <use xlink:href="#path-10"></use>
                    </mask>
                    <g id="path-3"></g>
                    <path d="M32.4358004,28.1883919 L30.1107135,28.5804067 L31.3228688,24.4583956 L32.4358004,28.1883919 Z M28.8043771,20 L24,35.0769538 L28.1729242,35.0769538 L28.7215823,33.2424547 L29.037634,32.1838521 L33.4573161,31.3915268 L34.1045471,33.352902 L34.6769538,35.0769538 L38.6462255,35.0769538 L33.6586913,20 L28.8043771,20 Z" id="Fill-14" fill="#592913" fill-rule="nonzero" mask="url(#mask-11)"></path>
                </g>
                <g id="Fill-15-Clipped" transform="translate(0.000000, 0.162662)">
                    <mask id="mask-13" fill="white">
                        <use xlink:href="#path-12"></use>
                    </mask>
                    <g id="path-3"></g>
                    <polygon id="Fill-15" fill="#592913" fill-rule="nonzero" mask="url(#mask-13)" points="10.9730277 8.53733087 6.79571165 9.28606285 6.79571165 8.11262107 6.79571165 3 3 3 3 17.8432089 6.79571165 17.8432089 6.79571165 12.6972421 10.9730277 11.9485102 10.9730277 12.5279113 10.9730277 17.8432089 14.7474307 17.8432089 14.7474307 3 10.9730277 3"></polygon>
                </g>
                <g id="Fill-16-Clipped" transform="translate(0.000000, 0.162662)">
                    <mask id="mask-15" fill="white">
                        <use xlink:href="#path-14"></use>
                    </mask>
                    <g id="path-3"></g>
                    <path d="M27.1624547,16.8197412 C26.0604214,17.772451 24.6421738,18.2487246 22.9078743,18.2487246 C21.1729242,18.2487246 19.7545139,17.772451 18.6531312,16.8197412 C17.5509353,15.8673567 17,14.6018484 17,13.0237043 L17,3 L20.817671,3 L20.817671,12.6611312 C20.817671,13.9121627 21.5140259,14.5377597 22.9078743,14.5377597 C24.3009094,14.5377597 24.9975896,13.9121627 24.9975896,12.6611312 L24.9975896,3 L28.8152606,3 L28.8152606,13.0237043 C28.8152606,14.6018484 28.264,15.8673567 27.1624547,16.8197412" id="Fill-16" fill="#592913" fill-rule="nonzero" mask="url(#mask-15)"></path>
                </g>
                <g id="Fill-17-Clipped" transform="translate(0.000000, 0.162662)">
                    <mask id="mask-17" fill="white">
                        <use xlink:href="#path-16"></use>
                    </mask>
                    <g id="path-3"></g>
                    <polygon id="Fill-17" fill="#592913" fill-rule="nonzero" mask="url(#mask-17)" points="39.2319852 3 43.0280222 3 43.0280222 17.9287689 40.0849834 17.9287689 34.8173457 10.4216044 34.8173457 17.9287689 31 17.9287689 31 3 33.9641848 3 39.2319852 10.5070018"></polygon>
                </g>
                <g id="Fill-18-Clipped" transform="translate(45.000000, 3.162662)" fill="#592913" fill-rule="nonzero">
                    <path d="M15.1332506,5.48804121 L15.3791951,6.98225193 C15.7349363,9.14272513 15.3461748,11.0043887 14.2129104,12.5669174 C13.0796461,14.1296087 11.432696,15.0888249 9.27238549,15.4444035 C6.97137255,15.8234054 4.95989751,15.3978822 3.23730971,14.1684848 C1.51439658,12.9392501 0.475638728,11.2443148 0.119734846,9.08384158 C-0.235843712,6.92369371 0.20057773,4.97842199 1.42867385,3.24867707 C2.65693263,1.51942014 4.35804908,0.475294447 6.53283651,0.117275963 C7.90765352,-0.109149176 9.21740583,-0.00764825136 10.4625814,0.42129075 C11.7074317,0.850555076 12.7369178,1.52397467 13.5508772,2.44154953 L10.653709,4.79916875 C10.2830029,4.38454399 9.79030047,4.08410776 9.17592708,3.89672143 C8.56171636,3.70998576 7.89675518,3.67517615 7.1812062,3.79294325 C6.01638549,3.98472143 5.12499917,4.5205292 4.50639658,5.40036654 C3.88730601,6.2805292 3.6751951,7.30969001 3.8690879,8.4881743 C4.05614889,9.6245292 4.58268494,10.5250246 5.44853337,11.1891725 C6.3143818,11.8538083 7.41364982,12.0760042 8.7465001,11.8565736 C10.4580269,11.5748434 11.4813319,10.7438046 11.8157644,9.36280646 L8.23834483,9.95180461 L7.70481433,6.71109482 L15.1332506,5.48804121 Z" id="Fill-18"></path>
                </g>
                <g id="Fill-19-Clipped" transform="translate(61.731343, 3.789527)" fill="#592913" fill-rule="nonzero">
                    <polygon id="Fill-19" points="3.81750832 11.3458189 9.59687985 11.3458189 9.59687985 14.9287689 0 14.9287689 0 0 9.49033641 0 9.49033641 3.56147874 3.81750832 3.56147874 3.81750832 5.63021072 8.9572939 5.63021072 8.9572939 9.14923475 3.81750832 9.14923475"></polygon>
                </g>
                <g id="Fill-20-Clipped" transform="translate(72.895522, 3.789527)" fill="#592913" fill-rule="nonzero">
                    <path d="M3.81767098,3.51886137 L3.81767098,7.21681331 L5.86720887,6.96013309 C6.2382403,6.93703512 6.78218115,6.73224399 7.08066543,6.41928281 C7.37914972,6.10664695 7.52831054,5.70145656 7.52831054,5.20371165 C7.52831054,4.70612939 7.37914972,4.300939 7.08066543,3.98814048 C6.78218115,3.67534196 6.39797412,3.51886137 5.92885767,3.51886137 L3.81767098,3.51886137 Z M7.78434011,14.9287689 L5.18256562,10.1087763 L3.81767098,10.3382921 L3.81767098,14.9287689 L0,14.9287689 L0,0 L5.97147505,0 C7.49285028,0 8.76860628,0.487009242 9.79971904,1.46086506 C10.8303438,2.43472089 11.3459815,3.66802218 11.3459815,5.16093161 C11.3459815,6.05687246 11.1184177,6.87782625 10.6636155,7.62428096 C10.2081627,8.37073567 9.58972274,8.96461368 8.80813309,9.40510166 L11.8791867,14.9287689 L7.78434011,14.9287689 Z" id="Fill-20"></path>
                </g>
            </g>
        </g>
    </g>
</svg>